<svg width="14" height="11" viewBox="0 0 14 11" fill="none" xmlns="http://www.w3.org/2000/svg">
<path fill-rule="evenodd" clip-rule="evenodd" d="M4.91671 7.88148L6.59009 7.81176L8.19374 7.84662C9.72767 7.88149 10.7241 8.28455 10.767 8.0558L11.4283 4.92565C11.4616 4.74963 11.384 4.57108 11.2283 4.46369C11.0718 4.35567 10.8648 4.33851 10.689 4.41667L8.26347 5.7549L7.04373 2.60062C6.86099 2.29752 6.31897 2.29752 6.13622 2.60062L4.77727 5.7549L2.49093 4.41667C2.3158 4.33851 2.10813 4.35567 1.95169 4.46369C1.79593 4.57108 1.7191 4.749 1.75163 4.92565L2.2457 8.12552C2.28931 8.35427 2.89472 8.09066 4.91671 7.88148Z" fill="url(#paint0_linear_439_2009)"/>
<path d="M3.00651 10.461L10.055 10.461C10.2822 10.461 10.4763 10.2974 10.5149 10.0734C10.5149 10.0734 10.599 9.16687 10.641 8.7136C8.89527 8.50394 5.78353 8.2107 2.43057 8.8284C2.46904 9.24339 2.54599 10.0734 2.54599 10.0734C2.58519 10.2974 2.77936 10.461 3.00651 10.461Z" fill="#A3792E"/>
<circle cx="1.15045" cy="1.15045" r="1.15045" transform="matrix(-1 -8.74228e-08 -8.74228e-08 1 13.1083 2.51135)" fill="url(#paint1_linear_439_2009)"/>
<path d="M5.41259 1.18775C5.41259 1.84238 5.94327 2.37306 6.59789 2.37306C7.25252 2.37306 7.7832 1.84238 7.7832 1.18775C7.7832 0.533122 7.25252 0.00244136 6.59789 0.0024413C5.94327 0.00244125 5.41259 0.533122 5.41259 1.18775Z" fill="url(#paint2_linear_439_2009)"/>
<ellipse cx="1.18531" cy="1.15045" rx="1.18531" ry="1.15045" transform="matrix(-1 -8.74228e-08 -8.74228e-08 1 2.37073 2.51135)" fill="url(#paint3_linear_439_2009)"/>
<defs>
<linearGradient id="paint0_linear_439_2009" x1="11.4359" y1="2.37329" x2="11.4359" y2="9.34569" gradientUnits="userSpaceOnUse">
<stop stop-color="#E0C57D"/>
<stop offset="1" stop-color="#AD8031"/>
</linearGradient>
<linearGradient id="paint1_linear_439_2009" x1="0" y1="0" x2="0" y2="5.06807" gradientUnits="userSpaceOnUse">
<stop stop-color="#E0C57D"/>
<stop offset="1" stop-color="#AD8031"/>
</linearGradient>
<linearGradient id="paint2_linear_439_2009" x1="8.17831" y1="0.0698889" x2="8.17831" y2="2.44051" gradientUnits="userSpaceOnUse">
<stop offset="0.96995" stop-color="#E0C57D"/>
<stop offset="1" stop-color="#AD8031"/>
</linearGradient>
<linearGradient id="paint3_linear_439_2009" x1="0" y1="0" x2="-0.0871561" y2="5.27288" gradientUnits="userSpaceOnUse">
<stop stop-color="#E0C57D"/>
<stop offset="1" stop-color="#AD8031"/>
</linearGradient>
</defs>
</svg>
