<svg width="21" height="20" viewBox="0 0 21 20" fill="none" xmlns="http://www.w3.org/2000/svg">
<path fill-rule="evenodd" clip-rule="evenodd" d="M5.20836 4.37504C5.20836 4.73996 5.29528 5.09631 5.45865 5.41671H3.20834C2.86317 5.41671 2.58334 5.69653 2.58334 6.04171V9.79171C2.58334 10.1369 2.86317 10.4167 3.20834 10.4167H3.83334V17.2917C3.83334 17.6369 4.11317 17.9167 4.45834 17.9167H10.498L10.5 17.9167L10.502 17.9167H16.5417C16.8869 17.9167 17.1667 17.6369 17.1667 17.2917V10.4167H17.7917C18.1369 10.4167 18.4167 10.1369 18.4167 9.79171V6.04171C18.4167 5.69653 18.1369 5.41671 17.7917 5.41671H15.5396C15.7021 5.09729 15.7917 4.73945 15.7917 4.37504C15.7917 3.76739 15.5507 3.18348 15.117 2.74977C14.6799 2.31272 14.1029 2.08337 13.5 2.08337C11.9858 2.08337 11.0723 3.17399 10.5774 4.07384C10.5507 4.12239 10.5249 4.17087 10.5 4.21916C10.4751 4.17087 10.4494 4.12239 10.4227 4.07384C9.92775 3.17399 9.01426 2.08337 7.50003 2.08337C6.89473 2.08337 6.31013 2.32272 5.88309 2.74977C5.44937 3.18348 5.20836 3.76739 5.20836 4.37504ZM7.50003 3.33337C7.22199 3.33337 6.9566 3.44402 6.76697 3.63365C6.56736 3.83327 6.45836 4.09936 6.45836 4.37504C6.45836 4.65072 6.56736 4.91682 6.76697 5.11643C6.9566 5.30606 7.22199 5.41671 7.50003 5.41671H9.66293C9.57791 5.18764 9.46728 4.93057 9.3274 4.67624C8.90565 3.90942 8.31913 3.33337 7.50003 3.33337ZM11.3371 5.41671H13.5C13.7781 5.41671 14.0434 5.30606 14.2331 5.11643C14.426 4.9235 14.5417 4.64841 14.5417 4.37504C14.5417 4.09936 14.4327 3.83327 14.2331 3.63365C14.0368 3.43736 13.7805 3.33337 13.5 3.33337C12.6809 3.33337 12.0944 3.90942 11.6727 4.67624C11.5328 4.93057 11.4221 5.18764 11.3371 5.41671ZM11.125 6.66671V9.16671H17.1667V6.66671H11.125ZM9.87501 6.66671V9.16671H3.83334V6.66671H9.87501ZM11.125 16.6667H15.9167V10.4167H11.125V16.6667ZM9.87501 10.4167V16.6667H5.08334V10.4167H9.87501Z" fill="#C49D59"/>
</svg>
