<svg width="20" height="20" viewBox="0 0 20 20" fill="none" xmlns="http://www.w3.org/2000/svg">
<g clip-path="url(#clip0_1536_4077)">
<path d="M15.4167 13.125C15.7584 13.125 16.0417 12.8417 16.0417 12.5C16.0417 12.1584 15.7584 11.875 15.4167 11.875H15.4084C15.0667 11.875 14.7834 12.1584 14.7834 12.5C14.7834 12.8417 15.075 13.125 15.4167 13.125Z" fill="#C49D59"/>
<path d="M7.08338 13.125C7.42504 13.125 7.70838 12.8417 7.70838 12.5C7.70838 12.1584 7.42504 11.875 7.08338 11.875C6.74171 11.875 6.45838 12.1584 6.45838 12.5C6.45838 12.8417 6.74171 13.125 7.08338 13.125Z" fill="#C49D59"/>
<path d="M18.5417 7.50003H3.95838C3.61671 7.50003 3.33338 7.78336 3.33338 8.12503V16.875C3.33338 17.225 3.61671 17.5 3.95838 17.5H18.5417C18.8834 17.5 19.1667 17.2167 19.1667 16.875V8.12503C19.1667 7.78336 18.8834 7.50003 18.5417 7.50003ZM17.9167 16.25H4.58338V8.75003H17.9167V16.25Z" fill="#C49D59"/>
<path d="M1.39171 6.4417L14.0334 3.05836L14.7584 5.77503C14.85 6.10836 15.1917 6.30836 15.525 6.2167C15.8584 6.12503 16.0584 5.78336 15.9667 5.45003L15.0834 2.13336C14.9917 1.80003 14.65 1.60003 14.3167 1.6917L0.466711 5.3917C0.300044 5.4417 0.166711 5.5417 0.0833773 5.68336C4.40081e-05 5.82503 -0.024956 6.00003 0.025044 6.15836L1.26671 10.8C1.34171 11.075 1.59171 11.2667 1.86671 11.2667C1.91671 11.2667 1.97504 11.2584 2.02504 11.2417C2.35838 11.15 2.55838 10.8084 2.46671 10.475L1.39171 6.4417Z" fill="#C49D59"/>
<path d="M11.25 14.5834C12.4 14.5834 13.3334 13.65 13.3334 12.5C13.3334 11.35 12.4 10.4167 11.25 10.4167C10.1 10.4167 9.16671 11.35 9.16671 12.5C9.16671 13.65 10.1 14.5834 11.25 14.5834ZM11.25 11.6667C11.7084 11.6667 12.0834 12.0417 12.0834 12.5C12.0834 12.9584 11.7084 13.3334 11.25 13.3334C10.7917 13.3334 10.4167 12.9584 10.4167 12.5C10.4167 12.0417 10.7917 11.6667 11.25 11.6667Z" fill="#C49D59"/>
</g>
<defs>
<clipPath id="clip0_1536_4077">
<rect width="20" height="20" fill="white"/>
</clipPath>
</defs>
</svg>
