<svg width="17" height="18" viewBox="0 0 17 18" fill="none" xmlns="http://www.w3.org/2000/svg">
<path fill-rule="evenodd" clip-rule="evenodd" d="M2.33295 5.94326C4.03268 2.53705 8.21368 1.13615 11.6516 2.82656L9.42498 7.27806L9.17625 7.28259C9.32088 6.77667 9.51414 6.10135 9.69157 5.48745C9.81295 5.06749 9.92647 4.67786 10.0117 4.39153C10.0545 4.24793 10.0894 4.13289 10.1143 4.05379C10.1247 4.02062 10.1325 3.99675 10.1378 3.98103C10.2387 3.75422 10.1924 3.47945 10.0034 3.29849C9.76591 3.07113 9.39028 3.07522 9.15781 3.30769C9.15141 3.31409 9.14535 3.32044 9.13962 3.32671L9.13961 3.3267L4.64433 8.23138L4.6443 8.23141C4.21518 8.69957 4.08335 9.32236 4.29905 9.86047C4.51883 10.4088 5.05582 10.7578 5.71144 10.7463L7.68095 10.7648L5.47054 15.1839C2.03543 13.4924 0.631989 9.34559 2.33275 5.94366L2.33295 5.94326ZM8.28305 9.56126L8.81462 8.4985L11.2555 8.45405C11.5521 8.45735 11.7021 8.80769 11.5022 9.02428L11.5022 9.02431L8.72725 12.0301L9.1124 10.6259L9.11298 10.6237C9.25659 10.0924 8.8608 9.56867 8.31022 9.56152L8.30804 9.56149L8.28305 9.56126ZM8.81453 8.4985L8.28295 9.56126L5.71381 9.53717C5.70716 9.53711 5.7005 9.53716 5.69385 9.53732C5.58695 9.53984 5.52427 9.51423 5.49084 9.49315C5.45691 9.47175 5.43465 9.44375 5.42136 9.41059C5.3974 9.35083 5.38514 9.21259 5.53564 9.04841L5.53567 9.04838L8.26582 6.06958C8.14861 6.47817 8.03826 6.86428 7.95332 7.16147L7.87717 7.42785L7.87715 7.42784L7.8757 7.43308C7.72588 7.9753 8.13651 8.50771 8.69915 8.50059L8.70251 8.50054L8.81453 8.4985ZM7.68107 10.7648L5.47069 15.184C8.86617 16.8546 12.888 15.4679 14.6262 11.9873C16.3634 8.50856 15.0444 4.49808 11.6516 2.82656L9.42505 7.27806L11.2403 7.245L11.2513 7.2448V7.2449C12.6017 7.2449 13.3086 8.85006 12.3907 9.84444L12.3907 9.84447L7.93182 14.6742C7.74272 14.879 7.43806 14.928 7.19429 14.7927C6.95052 14.6575 6.83085 14.373 6.90459 14.1042L7.82016 10.7661L7.68107 10.7648ZM12.1856 1.74173C8.1562 -0.239794 3.2506 1.39662 1.25115 5.40318C-0.751704 9.40965 0.904455 14.2834 4.93657 16.2688L4.93672 16.2688C8.9488 18.2429 13.6826 16.5831 15.7079 12.5275C17.7343 8.4698 16.2007 3.71983 12.1859 1.74192L12.1856 1.74173Z" fill="#C49D59"/>
</svg>
